<svg xmlns="http://www.w3.org/2000/svg" viewBox="0 0 283.46 283.46"><defs><style>.cls-1{fill:#0072bc;fill-rule:evenodd;}</style></defs><g id="Слой_2" data-name="Слой 2"><g id="Слой_1-2" data-name="Слой 1"><g id="container-id1"><g id="id1"><g id="id3"><path class="cls-1" d="M31.49,108.17q0,9.39,6,14.88c4,3.66,9.39,5.47,16.16,5.47q9.15,0,14.94-4.08a15.4,15.4,0,0,0,6.69-11.2h1.13v14h18.2V78.92a19.36,19.36,0,0,0-2.24-9.41,20.89,20.89,0,0,0-6.23-7.2,29.89,29.89,0,0,0-9.67-4.65A44.25,44.25,0,0,0,63.92,56,42.3,42.3,0,0,0,52.5,57.46a30.43,30.43,0,0,0-9.19,4.22,23.39,23.39,0,0,0-6.4,6.61A22.15,22.15,0,0,0,33.65,77H52.1a7.91,7.91,0,0,1,4-4.62,16,16,0,0,1,7.82-1.73c3.57,0,6.41.76,8.48,2.3a7.1,7.1,0,0,1,3.11,6v6.23H60.38c-8.9,0-16,2-21.12,6.15S31.49,101.06,31.49,108.17Zm19.08-3.06a7.78,7.78,0,0,1,2.66-6.29,10.87,10.87,0,0,1,7.15-2.24H75.51v7.14A8.75,8.75,0,0,1,71.63,111a16.44,16.44,0,0,1-10,2.87c-3.57,0-6.32-.8-8.22-2.36A7.91,7.91,0,0,1,50.57,105.11ZM110.1,57.29v70h19.07V84a11.58,11.58,0,0,1,3-8.39,12.2,12.2,0,0,1,16.16,0c2,2,3,4.85,3,8.39v43.26h19.08V82.09c0-8.13-2-14.51-6.09-19.16S154.57,56,147.37,56q-7.6,0-12.33,3.43a14.13,14.13,0,0,0-5.61,9.92h-1.25V57.29Zm73,0V74.47h18.45v28.6c0,7.57,2.13,13.46,6.41,17.74s10.2,6.44,17.74,6.44h19.73V110.07h-17.8a6.39,6.39,0,0,1-7-7V74.47h26.08V57.29H220.65V35.66H201.57V57.29ZM29.2,161H50.83v50.23c0,7.57,2.15,13.46,6.43,17.74s10.2,6.44,17.74,6.44H97.91V218.24h-21a7,7,0,0,1-5.16-1.84,7,7,0,0,1-1.84-5.16V143.83H29.2Zm78.6,55.33c0,6.26,2,11.23,6,14.88s9.39,5.47,16.16,5.47q9.18,0,15-4.08a15.4,15.4,0,0,0,6.66-11.2h1.16v14H170.9V187.09a19.8,19.8,0,0,0-2.21-9.41,21.46,21.46,0,0,0-6.24-7.2,30,30,0,0,0-9.66-4.65,44.4,44.4,0,0,0-12.53-1.65,41.28,41.28,0,0,0-11.45,1.48,29.5,29.5,0,0,0-9.16,4.19,23.36,23.36,0,0,0-6.43,6.61,22.6,22.6,0,0,0-3.24,8.7h18.43a7.94,7.94,0,0,1,4-4.62,15.86,15.86,0,0,1,7.83-1.73c3.54,0,6.38.76,8.45,2.3a7,7,0,0,1,3.11,6v6.23H136.69q-13.35,0-21.12,6.15C110.41,203.58,107.8,209.23,107.8,216.34Zm19.11-3.06a7.69,7.69,0,0,1,2.66-6.29,10.78,10.78,0,0,1,7.12-2.22h15.13v7.12a8.64,8.64,0,0,1-3.88,7.31,16.4,16.4,0,0,1-10,2.87c-3.57,0-6.29-.8-8.19-2.36A7.83,7.83,0,0,1,126.91,213.28Zm59.78-69.45v91.59h18.57V223.2h1.13a14.71,14.71,0,0,0,5.78,9.92c3.21,2.38,7.29,3.57,12.31,3.57a24.34,24.34,0,0,0,10-2,22.48,22.48,0,0,0,7.71-5.59,25.09,25.09,0,0,0,5-8.78,37.13,37.13,0,0,0,1.7-11.63V191.54a35.76,35.76,0,0,0-1.7-11.34,24.76,24.76,0,0,0-5-8.65,22.16,22.16,0,0,0-7.71-5.47,25.33,25.33,0,0,0-10-1.9c-5,0-9.1,1.19-12.31,3.57a14.7,14.7,0,0,0-5.78,9.78h-1.28c.09-1.44.23-2.89.4-4.3.09-1.2.14-2.5.2-3.89s.06-2.69.06-3.88V143.83Zm19.08,64.88V192.16a10.93,10.93,0,0,1,3.31-8.33,13.92,13.92,0,0,1,17.49-.06,11,11,0,0,1,3.23,8.39v15.9a12.07,12.07,0,0,1-3.11,8.65q-3.1,3.31-8.85,3.32c-3.8,0-6.77-1.05-8.9-3.18A11.06,11.06,0,0,1,205.77,208.71Zm77.69-67-.11,46.8L283,203.5l-.57,10.77-.79,8.7-1,7.37-1.22,6.44-1.5,5.7-1.76,5.07-2,4.62L272,256.31l-2.53,3.8-2.8,3.43-3.09,3.09-3.43,2.8-3.8,2.53-4.14,2.24-4.62,2-5.07,1.76-5.7,1.5-6.44,1.22-7.37,1-8.7.79L203.5,283l-14.94.31-46.69.11-47-.11L80,283l-10.78-.57-8.7-.79-7.37-1-6.43-1.22-5.7-1.5-5.08-1.76-4.62-2L27.16,272l-3.8-2.53-3.43-2.8-3.09-3.09L14,260.11l-2.52-3.8-2.24-4.14-2-4.62-1.76-5.07L4,236.78l-1.22-6.44-1-7.37-.8-8.7L.43,203.5.11,188.56,0,141.87l.11-47L.43,80,1,69.19l.8-8.7,1-7.37L4,46.69,5.53,41l1.76-5.08,2-4.62,2.24-4.13L14,23.36l2.81-3.43,3.09-3.09L23.36,14l3.8-2.52,4.13-2.24,4.62-2L41,5.53,46.69,4l6.43-1.22,7.37-1,8.7-.8L80,.43,94.9.11,141.59,0l47,.11L203.5.43,214.27,1l8.7.8,7.37,1L236.78,4l5.7,1.5,5.07,1.76,4.62,2,4.14,2.24,3.8,2.52,3.43,2.81,3.09,3.09,2.8,3.43,2.53,3.8,2.24,4.13,2,4.62L277.94,41l1.5,5.7,1.22,6.43,1,7.37.79,8.7L283,80l.31,14.93.11,46.66Z"/></g></g></g></g></g></svg>