<svg xmlns="http://www.w3.org/2000/svg" xmlns:xlink="http://www.w3.org/1999/xlink" viewBox="0 0 16.09 16.09"><defs><style>.cls-1{fill:none;}.cls-2{clip-path:url(#clip-path);}.cls-3{fill:#828282;}.cls-4{fill:#fff;}</style><clipPath id="clip-path"><rect class="cls-1" width="16.09" height="16.09"/></clipPath></defs><g id="Слой_2" data-name="Слой 2"><g id="Слой_1-2" data-name="Слой 1"><g class="cls-2"><path class="cls-3" d="M0,7.73c0-3.64,0-5.46,1.13-6.6S4.07,0,7.73,0h.64C12,0,13.82,0,15,1.13s1.12,2.94,1.12,6.6v.64c0,3.64,0,5.45-1.12,6.6s-3,1.12-6.6,1.12H7.73c-3.64,0-5.46,0-6.6-1.12S0,12,0,8.37Z"/><path class="cls-4" d="M8.56,11.59c-3.67,0-5.76-2.51-5.84-6.7H4.55C4.62,8,6,9.27,7.05,9.53V4.89H8.77V7.55a3.58,3.58,0,0,0,2.54-2.66h1.74A5.13,5.13,0,0,1,10.7,8.24a5.23,5.23,0,0,1,2.75,3.36H11.54A3.31,3.31,0,0,0,8.77,9.21v2.38Z"/></g></g></g></svg>