<svg version="1.1" id="Слой_1" xmlns="http://www.w3.org/2000/svg" xmlns:xlink="http://www.w3.org/1999/xlink" x="0px" y="0px"
	 viewBox="0 0 101 100" style="enable-background:new 0 0 101 100;" xml:space="preserve">
<style type="text/css">
	.st0{clip-path:url(#SVGID_00000082330306928018306000000017916505798719369640_);}
	.st1{fill:#828282;}
	.st2{fill:#FFFFFF;}
</style>
<g>
	<g>
		<defs>
			<rect id="SVGID_1_" x="0.5" width="100" height="100"/>
		</defs>
		<clipPath id="SVGID_00000067223641831776593080000003506023780041576877_">
			<use xlink:href="#SVGID_1_"  style="overflow:visible;"/>
		</clipPath>
		<g style="clip-path:url(#SVGID_00000067223641831776593080000003506023780041576877_);">
			<path class="st1" d="M0.5,48c0-22.6,0-33.9,7-41c7-7,18.3-7,41-7h4c22.6,0,33.9,0,41,7c7,7,7,18.3,7,41v4c0,22.6,0,33.9-7,41
				c-7,7-18.3,7-41,7h-4c-22.6,0-33.9,0-41-7c-7-7-7-18.3-7-41V48z"/>
			<path class="st2" d="M53.7,72c-22.8,0-35.8-15.6-36.3-41.6h11.4c0.4,19.1,8.8,27.2,15.5,28.8V30.4H55v16.5
				c6.6-0.7,13.5-8.2,15.8-16.5h10.8C79.8,40.6,72.3,48.1,67,51.2c5.3,2.5,13.9,9,17.1,20.9H72.2c-2.5-7.9-8.9-14-17.2-14.9V72H53.7
				z"/>
		</g>
	</g>
</g>
</svg>
